<svg id="Grupo_30933" data-name="Grupo 30933" xmlns="http://www.w3.org/2000/svg" width="77.209" height="77.213" viewBox="0 0 77.209 77.213">
  <path id="Trazado_17092" data-name="Trazado 17092" d="M40.35,0A38.7,38.7,0,0,0,5.9,21.189c3.157,3.438,13.4,11.436,24.908,8.349a20.885,20.885,0,0,0,7.648-3.929C45.822,20,50.383,11.577,70.239,14.1A38.685,38.685,0,0,0,40.35,0" transform="translate(-1.792 0)" fill="#fff"/>
  <path id="Trazado_17093" data-name="Trazado 17093" d="M52.138,85.341c-9.682,4.35-19.084,10.524-42.238-.07h0A38.637,38.637,0,0,0,74.169,83.8C64.416,80.57,58.242,82.6,52.138,85.341" transform="translate(-2.985 -24.51)" fill="#fff"/>
  <path id="Trazado_17094" data-name="Trazado 17094" d="M74.7,31.442c9.121-2.035,11.086-6.806,10.735-9.121a57.968,57.968,0,0,0-7.016-.421C65.232,21.9,56.11,32.214,55.9,32.424c1.965.07,11.717.631,18.8-.982" transform="translate(-16.711 -6.534)" fill="#fff"/>
  <path id="Trazado_17095" data-name="Trazado 17095" d="M11.6,83.246a52.365,52.365,0,0,0,21.961,5.613h0c6.315,0,12.77-2.456,17.26-4.771-4.28-1.544-9.753-3.859-18.032-3.789-10.735.14-17.47,1.052-21.189,2.947" transform="translate(-3.493 -23.959)" fill="#fff"/>
  <path id="Trazado_17096" data-name="Trazado 17096" d="M64.115,47.8c-1.965,1.684-3.929,2.245-6.315,2.947,18.1,1.263,31.643-7.437,33.327-17.33-.912-.491-4.7-4.35-27.013,14.383" transform="translate(-17.278 -9.776)" fill="#fff"/>
  <path id="Trazado_17097" data-name="Trazado 17097" d="M74.877,36h0C72.632,48.629,54.459,55.295,33.9,52.418A73.307,73.307,0,0,1,1.346,39.438h0A38.391,38.391,0,0,0,2.4,62.592c.491.211,10.595,6.736,46.027-.842a54.6,54.6,0,0,1,26.521,1.123A39.717,39.717,0,0,0,74.877,36" transform="translate(-0.045 -10.742)" fill="#fff"/>
</svg>
